<svg xmlns="http://www.w3.org/2000/svg" data-name="Layer 1" viewBox="0 0 64 64" id="marketing"><path d="m42.517 14.817 4.242-4.243 1.414 1.414-4.242 4.243zM45.344 18.059h5.657v2h-5.657zM38.688 7.745h2v5.657h-2zM42 36c.62 0 1 .323 1 .5h2a2.541 2.541 0 0 0-2-2.352V33h-2v1.148a2.541 2.541 0 0 0-2 2.352 2.754 2.754 0 0 0 3 2.5c.62 0 1 .323 1 .5s-.38.5-1 .5-1-.323-1-.5h-2a2.541 2.541 0 0 0 2 2.352V43h2v-1.148a2.541 2.541 0 0 0 2-2.352 2.754 2.754 0 0 0-3-2.5c-.62 0-1-.323-1-.5s.38-.5 1-.5Z"></path><path d="m46.293 31.261 1.571-.672a1 1 0 0 0 .313-1.626l-6.426-6.426c1.349-1.875 1.423-4.234.058-5.6a3.687 3.687 0 0 0-3.177-.955A5.5 5.5 0 0 0 36.211 17l-6.424-6.423a1 1 0 0 0-1.626.314l-6.284 14.668L11.4 36.033a1 1 0 0 0 0 1.414l1.412 1.413-1.807 1.808a3.439 3.439 0 0 0 0 4.865l2.205 2.2a3.44 3.44 0 0 0 4.866 0l1.808-1.807 1.416 1.421a1 1 0 0 0 1.412 0l1.418-1.418 4.241 4.241a1 1 0 0 0 .221.167l6.364 3.535a1 1 0 0 0 1.193-.167l2.828-2.828a1 1 0 0 0-.221-1.581l-6.239-3.466-4.141-4.141 4.814-4.815.962-.41A7.929 7.929 0 0 0 34 38a8 8 0 1 0 12.293-6.739Zm-7.378-13.3a1.748 1.748 0 0 1 1.48.389 2.284 2.284 0 0 1-.09 2.738l-2.647-2.647a3.407 3.407 0 0 1 1.257-.478Zm-22.25 28.363a1.474 1.474 0 0 1-2.038 0l-2.2-2.2a1.441 1.441 0 0 1 0-2.037l1.807-1.808 4.244 4.243Zm5.347-1.1L20.6 43.82l-.008-.012-5.654-5.658-.012-.007-1.4-1.4 5.659-5.659 8.487 8.487-1.4 1.4c-.006.006-.013.007-.019.012l-2.828 2.829c-.007.006-.009.015-.015.022Zm9.19 2.115a1.028 1.028 0 0 0 .221.167l5.206 2.894-1.358 1.36-5.582-3.1-4.142-4.141 1.415-1.419Zm1.025-12.229a1.021 1.021 0 0 0-.314.213l-2.83 2.831-8.483-8.487 2.83-2.83a.992.992 0 0 0 .213-.314l5.777-13.491 16.3 16.3-2 .858a7.953 7.953 0 0 0-8.542 3.662ZM42 44a6 6 0 1 1 6-6 6.006 6.006 0 0 1-6 6Z"></path><path d="M60.443 29.56a4.317 4.317 0 0 1-.873-.925 4.063 4.063 0 0 1 .641-1.16 3.523 3.523 0 0 0 .924-2.7c-.246-1.006-1.224-1.528-2.088-1.989a4.238 4.238 0 0 1-1.072-.691 4.025 4.025 0 0 1 .344-1.274 3.538 3.538 0 0 0 .251-2.855 3.513 3.513 0 0 0-2.5-1.424 4.257 4.257 0 0 1-1.208-.412 4.063 4.063 0 0 1 .033-1.314 3.54 3.54 0 0 0-.437-2.839 3.5 3.5 0 0 0-2.761-.782 4.3 4.3 0 0 1-1.273-.109 4.1 4.1 0 0 1-.276-1.278 3.535 3.535 0 0 0-1.1-2.66 3.483 3.483 0 0 0-2.864-.1 4.181 4.181 0 0 1-1.265.2 4.039 4.039 0 0 1-.567-1.167c-.349-.917-.745-1.957-1.708-2.325a3.467 3.467 0 0 0-2.8.6 4.323 4.323 0 0 1-1.186.5 4.1 4.1 0 0 1-.822-.99c-.56-.809-1.2-1.726-2.224-1.851a3.5 3.5 0 0 0-2.561 1.251 4.194 4.194 0 0 1-1.048.778 3.986 3.986 0 0 1-1.062-.778 3.507 3.507 0 0 0-2.561-1.251c-1.029.125-1.664 1.042-2.224 1.851a4.391 4.391 0 0 1-.8.983 3.941 3.941 0 0 1-1.2-.5 3.477 3.477 0 0 0-2.8-.6c-.964.369-1.359 1.409-1.708 2.326a4.368 4.368 0 0 1-.548 1.161 3.87 3.87 0 0 1-1.282-.19 3.489 3.489 0 0 0-2.863.1 3.537 3.537 0 0 0-1.1 2.66 4.344 4.344 0 0 1-.264 1.266 3.977 3.977 0 0 1-1.286.121 3.493 3.493 0 0 0-2.761.783 3.545 3.545 0 0 0-.437 2.84 4.26 4.26 0 0 1 .042 1.3 3.951 3.951 0 0 1-1.219.427 3.505 3.505 0 0 0-2.5 1.423 3.532 3.532 0 0 0 .25 2.856 4.239 4.239 0 0 1 .349 1.26 4.009 4.009 0 0 1-1.077.7c-.864.461-1.843.983-2.089 1.989a3.524 3.524 0 0 0 .924 2.7 4.294 4.294 0 0 1 .643 1.145 4.071 4.071 0 0 1-.875.94A3.555 3.555 0 0 0 2 32a3.555 3.555 0 0 0 1.557 2.44 4.317 4.317 0 0 1 .873.925 4.063 4.063 0 0 1-.641 1.16 3.523 3.523 0 0 0-.924 2.7c.246 1.006 1.224 1.528 2.088 1.989a4.238 4.238 0 0 1 1.072.691 4.025 4.025 0 0 1-.344 1.274 3.538 3.538 0 0 0-.251 2.855 3.513 3.513 0 0 0 2.5 1.424 4.288 4.288 0 0 1 1.208.412 4.063 4.063 0 0 1-.033 1.314 3.54 3.54 0 0 0 .437 2.839 3.5 3.5 0 0 0 2.761.782 4.335 4.335 0 0 1 1.273.109 4.1 4.1 0 0 1 .276 1.278 3.535 3.535 0 0 0 1.1 2.66 3.483 3.483 0 0 0 2.864.1 4.149 4.149 0 0 1 1.265-.2 4.039 4.039 0 0 1 .567 1.167c.349.917.745 1.957 1.708 2.325a3.47 3.47 0 0 0 2.8-.6 5.643 5.643 0 0 1 1.186-.5 4.1 4.1 0 0 1 .822.99c.56.809 1.2 1.726 2.224 1.851a3.484 3.484 0 0 0 2.561-1.251 4.194 4.194 0 0 1 1.048-.778 3.986 3.986 0 0 1 1.062.778A3.808 3.808 0 0 0 35.391 62a2.156 2.156 0 0 0 .225-.014c1.029-.125 1.664-1.042 2.224-1.851a4.391 4.391 0 0 1 .8-.983 3.686 3.686 0 0 1 1.2.5 3.483 3.483 0 0 0 2.8.6c.964-.369 1.359-1.409 1.708-2.326a4.368 4.368 0 0 1 .551-1.158 4 4 0 0 1 1.282.19 3.485 3.485 0 0 0 2.863-.1 3.537 3.537 0 0 0 1.1-2.66 4.344 4.344 0 0 1 .264-1.266 3.977 3.977 0 0 1 1.292-.122 3.493 3.493 0 0 0 2.761-.783 3.544 3.544 0 0 0 .437-2.839 4.267 4.267 0 0 1-.042-1.3 3.951 3.951 0 0 1 1.219-.427 3.505 3.505 0 0 0 2.5-1.423 3.532 3.532 0 0 0-.25-2.856 4.239 4.239 0 0 1-.349-1.26 4.009 4.009 0 0 1 1.077-.7c.864-.461 1.843-.983 2.089-1.989a3.524 3.524 0 0 0-.924-2.7 4.294 4.294 0 0 1-.643-1.145 4.071 4.071 0 0 1 .875-.94A3.555 3.555 0 0 0 62 32a3.555 3.555 0 0 0-1.557-2.44Zm-1.338 3.393a3.784 3.784 0 0 0-1.522 2.181 3.908 3.908 0 0 0 .975 2.516 5.4 5.4 0 0 1 .641 1.083 3.927 3.927 0 0 1-1.094.72 3.837 3.837 0 0 0-2 1.757 3.9 3.9 0 0 0 .342 2.669 5.392 5.392 0 0 1 .366 1.214 3.985 3.985 0 0 1-1.226.429 3.834 3.834 0 0 0-2.375 1.227 3.894 3.894 0 0 0-.3 2.669 5.466 5.466 0 0 1 .068 1.27 3.976 3.976 0 0 1-1.287.122 3.821 3.821 0 0 0-2.6.624 3.87 3.87 0 0 0-.923 2.517 5.69 5.69 0 0 1-.233 1.251 4.061 4.061 0 0 1-1.273-.191 3.834 3.834 0 0 0-2.682-.019 3.8 3.8 0 0 0-1.492 2.219 5.668 5.668 0 0 1-.522 1.16 3.753 3.753 0 0 1-1.184-.492 3.832 3.832 0 0 0-2.606-.669A3.772 3.772 0 0 0 36.2 59a5.7 5.7 0 0 1-.786 1 4.071 4.071 0 0 1-1.028-.761A3.865 3.865 0 0 0 32 57.958a3.869 3.869 0 0 0-2.381 1.281 5.85 5.85 0 0 1-.97.768A4.011 4.011 0 0 1 27.805 59a3.778 3.778 0 0 0-1.975-1.789 2.009 2.009 0 0 0-.478-.058 4.828 4.828 0 0 0-2.127.727 5.794 5.794 0 0 1-1.132.512 4.048 4.048 0 0 1-.575-1.18 3.807 3.807 0 0 0-1.492-2.219 3.84 3.84 0 0 0-2.682.019 5.792 5.792 0 0 1-1.229.221 4.074 4.074 0 0 1-.278-1.281 3.879 3.879 0 0 0-.922-2.518 3.826 3.826 0 0 0-2.6-.624 5.405 5.405 0 0 1-1.253-.082 4.066 4.066 0 0 1 .034-1.309 3.9 3.9 0 0 0-.3-2.669 3.834 3.834 0 0 0-2.374-1.227 5.319 5.319 0 0 1-1.2-.385 4.069 4.069 0 0 1 .343-1.258 3.9 3.9 0 0 0 .335-2.671 3.845 3.845 0 0 0-2-1.757 5.093 5.093 0 0 1-1.083-.672 4.083 4.083 0 0 1 .63-1.13 3.913 3.913 0 0 0 .975-2.516A3.784 3.784 0 0 0 4.9 32.953a4.824 4.824 0 0 1-.9-.934c.046-.207.6-.706.9-.972a3.784 3.784 0 0 0 1.522-2.181 3.908 3.908 0 0 0-.975-2.516 5.4 5.4 0 0 1-.647-1.083 3.927 3.927 0 0 1 1.094-.72 3.837 3.837 0 0 0 2-1.757 3.9 3.9 0 0 0-.342-2.669 5.392 5.392 0 0 1-.366-1.214 3.985 3.985 0 0 1 1.226-.429 3.834 3.834 0 0 0 2.375-1.227 3.894 3.894 0 0 0 .3-2.669 5.466 5.466 0 0 1-.068-1.27 3.976 3.976 0 0 1 1.287-.122 3.821 3.821 0 0 0 2.6-.624 3.87 3.87 0 0 0 .923-2.517 5.69 5.69 0 0 1 .242-1.249 4.007 4.007 0 0 1 1.273.191 3.84 3.84 0 0 0 2.682.019 3.8 3.8 0 0 0 1.492-2.219 5.668 5.668 0 0 1 .522-1.16 3.751 3.751 0 0 1 1.184.492 3.835 3.835 0 0 0 2.606.669A3.772 3.772 0 0 0 27.805 5a5.7 5.7 0 0 1 .786-1 4.071 4.071 0 0 1 1.028.761A3.865 3.865 0 0 0 32 6.042a3.869 3.869 0 0 0 2.381-1.281 5.85 5.85 0 0 1 .97-.768A4.011 4.011 0 0 1 36.2 5a3.778 3.778 0 0 0 1.97 1.791 3.847 3.847 0 0 0 2.6-.669 5.794 5.794 0 0 1 1.132-.512 4.048 4.048 0 0 1 .575 1.18 3.807 3.807 0 0 0 1.492 2.219 3.829 3.829 0 0 0 2.682-.019 5.728 5.728 0 0 1 1.229-.221 4.074 4.074 0 0 1 .278 1.281 3.879 3.879 0 0 0 .922 2.518 3.826 3.826 0 0 0 2.6.624 5.405 5.405 0 0 1 1.253.082 4.066 4.066 0 0 1-.034 1.309 3.9 3.9 0 0 0 .3 2.669 3.834 3.834 0 0 0 2.374 1.227 5.319 5.319 0 0 1 1.2.385 4.069 4.069 0 0 1-.343 1.258 3.9 3.9 0 0 0-.343 2.669 3.845 3.845 0 0 0 2 1.757 5.093 5.093 0 0 1 1.083.672 4.083 4.083 0 0 1-.63 1.13 3.913 3.913 0 0 0-.975 2.516 3.784 3.784 0 0 0 1.522 2.181A4.376 4.376 0 0 1 60 32a4.376 4.376 0 0 1-.895.953Z"></path></svg>