<svg xmlns="http://www.w3.org/2000/svg" width="24" height="24" fill="none" viewBox="0 0 24 24" id="meta"><path fill="#000" fill-rule="evenodd" d="M7.70345 6.75C6.36895 6.75 5.16534 7.55241 4.65207 8.78425C4.20826 9.8494 3.61925 12.4519 3.3571 13.6725C3.28114 14.0261 3.24587 14.3458 3.27242 14.6429C3.35509 15.5678 3.64726 16.0575 3.96591 16.3276C4.29409 16.6059 4.76633 16.75 5.39497 16.75C6.13464 16.75 6.82214 16.369 7.21417 15.7417L8.86006 13.1083L11.1251 9.3333L10.538 8.35486C9.94058 7.35921 8.86458 6.75 7.70345 6.75ZM11.9997 7.87556L11.8242 7.58311C10.9557 6.13566 9.39147 5.25 7.70345 5.25C5.7634 5.25 4.01363 6.41651 3.26746 8.20733C2.75817 9.42961 2.14079 12.1924 1.89055 13.3575C1.79766 13.7899 1.73335 14.2726 1.77838 14.7764C1.88515 15.9711 2.29398 16.8766 2.99586 17.4717C3.6882 18.0588 4.55603 18.25 5.39497 18.25C6.65183 18.25 7.82003 17.6025 8.48617 16.5367L10.1357 13.8975L11.9997 10.791L13.8566 13.8859L15.5132 16.5367C16.1793 17.6025 17.3475 18.25 18.6044 18.25C19.5414 18.25 20.4885 17.9835 21.1948 17.2419C21.8963 16.5053 22.2497 15.4155 22.2497 14C22.2497 13.6544 22.1991 13.2607 22.1259 12.8639C22.0507 12.4566 21.6596 12.1873 21.2523 12.2625C20.8449 12.3376 20.5756 12.7288 20.6508 13.1361C20.7166 13.4925 20.7497 13.785 20.7497 14C20.7497 15.1835 20.4549 15.8437 20.1086 16.2074C19.767 16.5661 19.2664 16.75 18.6044 16.75C17.8647 16.75 17.1772 16.369 16.7852 15.7417L15.1393 13.1083L12.8743 9.33331L13.4614 8.35489C14.0588 7.35922 15.1348 6.75 16.2959 6.75C17.6041 6.75 18.7866 7.52112 19.3161 8.71186C19.3333 8.75056 19.3507 8.79436 19.3703 8.84722C19.4011 8.93001 19.4524 9.06966 19.5178 9.25244C19.6572 9.64249 20.0864 9.84566 20.4764 9.70624C20.8665 9.56682 21.0697 9.1376 20.9302 8.74756C20.8626 8.55826 20.8091 8.41275 20.7764 8.32489C20.7513 8.25723 20.7217 8.18112 20.6867 8.10234C19.9167 6.37101 18.1978 5.25 16.2959 5.25C14.6079 5.25 13.0436 6.13567 12.1751 7.58315L11.9997 7.87556Z" clip-rule="evenodd"></path></svg>