<svg xmlns="http://www.w3.org/2000/svg" enable-background="new 0 0 64 64" viewBox="0 0 64 64" id="seo"><path d="M59.1,54.4l-5-5c-0.9-0.9-2.3-1.1-3.4-0.6l-1.3-1.3c1.6-1.9,2.6-4.4,2.6-7c0-6.1-4.9-11-11-11c-0.8,0-1.6,0.1-2.3,0.3
		c-3.6-5.2-9.4-8.3-15.7-8.3c-10.5,0-19,8.5-19,19s8.5,19,19,19c6.3,0,12.1-3.1,15.7-8.3c0.8,0.2,1.5,0.3,2.3,0.3c2.7,0,5.1-1,7-2.6
		l1.3,1.3c-0.5,1.1-0.3,2.5,0.6,3.4l5,5c0.6,0.6,1.4,0.9,2.1,0.9c0.8,0,1.5-0.3,2.1-0.9c0,0,0,0,0,0C60.3,57.5,60.3,55.6,59.1,54.4z
		 M6.1,41.5h7c0.1,2.1,0.3,4,0.6,5.9c-1.9,0.5-3.7,1.1-5.2,1.8C7.1,46.9,6.2,44.3,6.1,41.5z M8.6,31.6c1.6,0.7,3.3,1.3,5.2,1.8
		c-0.4,1.9-0.6,4-0.7,6.2h-7C6.2,36.6,7.1,33.9,8.6,31.6z M30.1,39.5H24v-5.1c2.2-0.1,4.3-0.3,6.3-0.6c0.2,0.9,0.3,1.8,0.4,2.7
		C30.4,37.4,30.1,38.4,30.1,39.5z M24,32.4v-8.7c2.4,0.7,4.6,3.7,5.8,8.2C28,32.1,26,32.3,24,32.4z M22,23.7v8.7
		c-2-0.1-4-0.2-5.8-0.6C17.4,27.5,19.6,24.3,22,23.7z M22,34.4v5.1h-7c0.1-2,0.3-4,0.7-5.7C17.7,34.1,19.8,34.3,22,34.4z M15,41.5h7
		v4.8c-2.2,0.1-4.3,0.3-6.4,0.7C15.3,45.2,15.1,43.4,15,41.5z M22,48.3v9.1c-2.5-0.7-4.7-4-5.9-8.5C18,48.5,20,48.3,22,48.3z
		 M24,57.3v-9.1c2,0.1,4,0.3,5.9,0.6C28.7,53.5,26.5,56.7,24,57.3z M24,46.3v-4.8h6.1c0.1,1.1,0.3,2.1,0.7,3
		c-0.1,0.8-0.2,1.6-0.4,2.4C28.3,46.6,26.2,46.3,24,46.3z M32.4,47.3c0,0,0.1,0.1,0.1,0.1C32.4,47.4,32.4,47.4,32.4,47.3
		C32.3,47.3,32.3,47.3,32.4,47.3z M32.4,33.7c0-0.1,0-0.3-0.1-0.4c0.2,0,0.3-0.1,0.5-0.1C32.6,33.4,32.5,33.5,32.4,33.7z M36.3,29.9
		c-1.4,0.6-2.9,1.1-4.5,1.5c-0.8-2.9-2-5.3-3.5-7C31.4,25.4,34.2,27.3,36.3,29.9z M17.7,24.4c-1.5,1.7-2.7,4.1-3.5,7
		c-1.6-0.4-3.1-0.9-4.4-1.5C11.8,27.4,14.5,25.4,17.7,24.4z M9.6,50.9c1.4-0.6,2.9-1.1,4.6-1.6c0.8,3,2,5.5,3.6,7.3
		C14.4,55.5,11.6,53.5,9.6,50.9z M28.3,56.6c1.5-1.8,2.8-4.3,3.6-7.3c1.6,0.4,3.2,0.9,4.6,1.6C34.4,53.6,31.5,55.6,28.3,56.6z
		 M32,40.5c0-5,4-9,9-9s9,4,9,9s-4,9-9,9S32,45.5,32,40.5z M57.7,57.2c-0.4,0.4-1,0.4-1.4,0l-5-5c-0.4-0.4-0.4-1,0-1.4
		c0.2-0.2,0.5-0.3,0.7-0.3c0.3,0,0.5,0.1,0.7,0.3l5,5C58.1,56.2,58.1,56.8,57.7,57.2z"></path><path d="M47 39.5c-.6 0-1 .4-1 1 0 2.8-2.2 5-5 5-.6 0-1 .4-1 1s.4 1 1 1c3.9 0 7-3.1 7-7C48 39.9 47.6 39.5 47 39.5zM27 10.5h21c.6 0 1-.4 1-1s-.4-1-1-1H27c-.6 0-1 .4-1 1S26.4 10.5 27 10.5zM54 10.5h1c.6 0 1-.4 1-1s-.4-1-1-1h-1c-.6 0-1 .4-1 1S53.4 10.5 54 10.5zM51 10.5c.3 0 .5-.1.7-.3C51.9 10 52 9.8 52 9.5c0-.3-.1-.5-.3-.7-.4-.4-1-.4-1.4 0C50.1 9 50 9.2 50 9.5c0 .3.1.5.3.7C50.5 10.4 50.7 10.5 51 10.5z"></path><path d="M14,20.5c0.6,0,1-0.4,1-1v-7c0-1.8,1.5-2,2-2h5.1c0.5,2.3,2.5,4,4.9,4h7v5c0,0.4,0.2,0.8,0.6,0.9c0.1,0.1,0.3,0.1,0.4,0.1
		c0.3,0,0.5-0.1,0.7-0.3l5.7-5.7H52v5c0,1.8-1.5,2-2,2h-6c-0.6,0-1,0.4-1,1s0.4,1,1,1h6c1.6,0,4-1.1,4-4v-5h1c2.8,0,5-2.2,5-5
		s-2.2-5-5-5H27c-2.4,0-4.4,1.7-4.9,4H17c-1.6,0-4,1.1-4,4v7C13,20.1,13.4,20.5,14,20.5z M27,6.5h28c1.7,0,3,1.3,3,3s-1.3,3-3,3H41
		c-0.3,0-0.5,0.1-0.7,0.3L36,17.1v-3.6c0-0.6-0.4-1-1-1h-8c-1.7,0-3-1.3-3-3S25.3,6.5,27,6.5z"></path></svg>