<svg xmlns="http://www.w3.org/2000/svg" viewBox="0 0 64 64" id="social-media"><path fill="#222" d="M5.93 25.11h15.84a1 1 0 0 1 .62.21L25 27.41V14.05a2 2 0 0 0-2-2H5.93a2 2 0 0 0-2 2v9.06a2 2 0 0 0 2 2Zm4.73-8.71a1.93 1.93 0 0 1 1-1.67 1.91 1.91 0 0 1 1.92 0l3.75 2a2 2 0 0 1 0 3.42l-3.75 2a1.92 1.92 0 0 1-.93.24 2 2 0 0 1-1-.27 1.94 1.94 0 0 1-1-1.68ZM19.44 49l2.08 1.64V38.69a1 1 0 0 0-1-1H4.45a1 1 0 0 0-1 1v9.09a1 1 0 0 0 1 1h14.37a1 1 0 0 1 .62.22ZM7.8 44.54a1.26 1.26 0 1 1 1.26-1.26 1.26 1.26 0 0 1-1.26 1.26Zm5 0a1.26 1.26 0 1 1 1.26-1.26 1.26 1.26 0 0 1-1.26 1.26Zm5 0a1.26 1.26 0 1 1 1.26-1.26 1.26 1.26 0 0 1-1.26 1.26ZM32 47.06a1 1 0 0 1-.62.22 1.08 1.08 0 0 1-.43-.1 1 1 0 0 1-.57-.9v-21a4 4 0 0 1 4-4h10.44v-14a3 3 0 0 0-3-3H16.21a3 3 0 0 0-3 3v2.79H23a4 4 0 0 1 4 4v15.4a1 1 0 0 1-.56.9 1 1 0 0 1-.44.1 1 1 0 0 1-.62-.22l-4-3.14h-8.17v8.58h7.31a3 3 0 0 1 3 3v14a1 1 0 0 1-.56.9 1.13 1.13 0 0 1-.44.1 1 1 0 0 1-.62-.22l-3.43-2.7h-5.26v6a3 3 0 0 0 3 3h25.61a3 3 0 0 0 3-3V42.89h-7.5ZM26 7.71a1 1 0 0 1 0-2h6a1 1 0 1 1 0 2Zm32.55 15.53H34.41a2 2 0 0 0-2 2v19l3.94-3.1a1 1 0 0 1 .62-.22h21.58a2 2 0 0 0 2-2V25.24a2 2 0 0 0-2-2Zm-4 6.23a1 1 0 0 1-2 0V27h-12v6.6l2.9-2.35a1 1 0 0 1 1.22 0l1.76 1.29 2.63-3a1 1 0 0 1 .69-.34 1 1 0 0 1 .73.25l3.78 3.38s.08.12.13.18a1.1 1.1 0 0 1 .09.14.94.94 0 0 1 0 .16 1.42 1.42 0 0 1 0 .22v4.57a1 1 0 0 1-1 1h-14a1 1 0 0 1-1-1V26a1 1 0 0 1 1-1h14a1 1 0 0 1 1 1Zm-41.84-9-.08-4 3.69 2Zm27.8 15.68L44 33.29l1.87 1.38a1 1 0 0 0 1.34-.15l2.57-2.91L52.5 34v3.1h-12Z" data-name="Social Media"></path></svg>