<svg xmlns="http://www.w3.org/2000/svg" viewBox="0 0 24 24" id="hilux"><path fill="#37474F" d="M.088 12.859h1.738c.08 0 .182-.084.216-.183l.341-.803h1.34l-.341.803c-.045.099-.011.183.068.183h1.738c.08 0 .182-.084.216-.183l1.034-2.465c.033-.099 0-.183-.08-.183H4.632c-.08 0-.182.084-.216.183l-.306.733H2.77l.307-.732c.034-.099 0-.183-.08-.183H1.271c-.08 0-.183.084-.217.183L.02 12.676c-.045.099-.011.183.068.183zm6.157 0h1.727c.079 0 .182-.084.227-.183l1.022-2.465c.045-.099.011-.183-.068-.183H7.415c-.079 0-.17.084-.216.183l-1.023 2.465c-.045.099-.011.183.069.183zm2.771 0h3.602c.08 0 .17-.084.216-.183l.239-.521c.045-.099.011-.169-.068-.169h-1.738l.738-1.775c.034-.099 0-.183-.08-.183h-1.727c-.08 0-.182.084-.227.183l-1.022 2.465c-.046.099-.011.183.067.183zm7.259.141c.909-.056 1.443-.239 1.862-1.239l.647-1.549c.045-.099.011-.183-.068-.183h-1.737c-.08 0-.182.084-.217.183l-.022.056-.683 1.62c-.102.211-.182.31-.318.31h-.273c-.136 0-.204-.141-.136-.31.216-.563.477-1.113.704-1.676.045-.099.011-.183-.068-.183H14.24c-.08 0-.182.084-.228.183l-.397.958c-.659 1.592.25 1.803.965 1.817l1.695.013zm7.69-3h-2.033c-.067 0-.203.056-.307.141l-.488.366-.408-.366-.274-.141h-1.363l.045.141 1.045 1.07-2.032 1.535c-.103.07-.137.141-.068.141h2.033c.067 0 .204-.07.307-.141l.727-.549.522.549.273.141h1.715l-.045-.141-1.443-1.31 1.728-1.296c.1-.084.134-.14.066-.14z"></path><path fill="#303E45" d="M5.921 11.443H.537L.02 12.676a.192.192 0 0 0-.02.079v.011c.002.055.035.093.088.093h1.738c.08 0 .182-.084.216-.183l.341-.803h1.34l-.341.803c-.045.099-.011.183.068.183h1.738c.08 0 .182-.084.216-.183l.517-1.233zm2.789 0H6.688l-.511 1.232c-.046.099-.012.183.068.183h1.727c.079 0 .182-.084.227-.183l.511-1.232zm2.781 0H9.459l-.511 1.232c-.045.099-.011.183.068.183h3.602c.08 0 .17-.084.216-.183l.239-.521c.045-.099.011-.169-.068-.169h-1.738l.224-.542zm6.78 0h-2.025l-.187.445c-.102.211-.182.31-.318.31h-.273c-.136 0-.204-.141-.136-.31.057-.149.117-.297.179-.445h-1.998c-.447 1.344.396 1.531 1.067 1.543l1.695.014c.909-.056 1.443-.239 1.862-1.239l.134-.318zm3.908 0h-2.305l-1.724 1.303c-.103.07-.137.141-.068.141h2.033c.067 0 .204-.07.307-.141l.727-.549.522.549.273.141h1.715l-.045-.141-1.435-1.303z"></path></svg>